#N canvas 511 23 769 721 12;
#X obj 154 331 metro;
#X obj 154 363 bng 15 250 50 0 empty empty empty 17 7 0 10 -262144
-1 -1;
#X msg 101 312 0;
#X obj 465 378 + 1;
#X obj 421 427 + 1;
#X msg 465 349 0, f 2;
#X obj 421 378 i;
#X obj 421 404 %;
#X floatatom 562 386 2 0 0 0 - - -;
#X floatatom 519 446 2 0 0 0 - - -;
#X obj 544 464 ==;
#X floatatom 581 483 2 0 0 0 - - -;
#X obj 581 508 sel 1;
#X obj 101 527 bng 15 250 50 0 empty empty empty 17 7 0 10 -262144
-1 -1;
#X obj 351 77 inlet;
#X obj 562 78 inlet;
#X obj 154 427 outlet;
#X obj 154 107 inlet;
#X text 206 426 new pulse;
#X text 302 32 >>> BEAT MULTIPLETS <<<;
#X text 197 107 pulse;
#X text 630 509 stop;
#X text 154 679 Beat Multiplets by Perkinson 2020 (perklapoint@gmail.com)
;
#X floatatom 530 126 2 0 0 0 - - -;
#X text 506 126 bM;
#X floatatom 299 96 5 0 0 0 - - -;
#X obj 275 211 /;
#X obj 275 146 t b f;
#X msg 275 181 1, f 2;
#X floatatom 275 266 5 0 0 0 - - -;
#X obj 351 146 t b f;
#X obj 275 289 *;
#X floatatom 275 313 5 0 0 0 - - -;
#X text 394 78 actual MS;
#X obj 465 144 bng 15 250 50 0 empty empty empty 17 7 0 10 -262144
-1 -1;
#X text 611 78 # beats;
#X msg 562 219 1, f 1;
#X msg 580 219 2, f 1;
#X msg 599 219 3, f 1;
#X msg 617 219 4, f 1;
#X msg 637 219 5, f 1;
#X msg 655 219 6, f 1;
#X msg 674 219 7, f 1;
#X msg 692 219 8, f 1;
#X obj 562 157 sel 1 2 3 4 5 6 7 8;
#X text 155 562 About: takes in a metronome bang and divides it by
1 \, 2 \, 3 \, 4 \, 5 \, 6 \, 7 \, or 8 to make tuplets (duplets \,
triplets \, quadruplets \, quintuplets \, sextuplets \, septuplets
and octuplets)., f 69;
#X text 155 619 vb2 - subdivision method adapted from Cyprian at http://www.cyprian.com.au/blogg/index.php?post/2019/06/15/CREATING-A-METRONOME-IN-PD
, f 69;
#X connect 0 0 1 0;
#X connect 1 0 16 0;
#X connect 1 0 6 0;
#X connect 2 0 0 0;
#X connect 3 0 6 1;
#X connect 4 0 9 0;
#X connect 5 0 6 1;
#X connect 6 0 3 0;
#X connect 6 0 7 0;
#X connect 7 0 4 0;
#X connect 8 0 10 1;
#X connect 8 0 7 1;
#X connect 8 0 27 0;
#X connect 9 0 10 0;
#X connect 10 0 11 0;
#X connect 11 0 12 0;
#X connect 12 0 13 0;
#X connect 13 0 2 0;
#X connect 14 0 25 0;
#X connect 14 0 30 0;
#X connect 15 0 23 0;
#X connect 15 0 44 0;
#X connect 17 0 0 0;
#X connect 23 0 34 0;
#X connect 23 0 44 0;
#X connect 26 0 29 0;
#X connect 27 0 28 0;
#X connect 27 1 26 1;
#X connect 28 0 26 0;
#X connect 29 0 31 0;
#X connect 30 0 29 0;
#X connect 30 1 31 1;
#X connect 31 0 32 0;
#X connect 32 0 0 1;
#X connect 34 0 5 0;
#X connect 36 0 8 0;
#X connect 37 0 8 0;
#X connect 38 0 8 0;
#X connect 39 0 8 0;
#X connect 40 0 8 0;
#X connect 41 0 8 0;
#X connect 42 0 8 0;
#X connect 43 0 8 0;
#X connect 44 0 36 0;
#X connect 44 1 37 0;
#X connect 44 2 38 0;
#X connect 44 3 39 0;
#X connect 44 4 40 0;
#X connect 44 5 41 0;
#X connect 44 6 42 0;
#X connect 44 7 43 0;
#X coords 0 -1 1 1 50 30 2 500 120;
