#N canvas 55 23 1225 719 12;
#X obj 16 58 bng 90 250 50 0 iniciar empty PLAY 25 45 0 18 -262144
-1 -1;
#X obj 16 155 bng 90 250 50 0 terminar empty STOP 25 45 0 18 -262144
-262144 -1;
#N canvas 617 276 594 421 transEng 0;
#X obj 329 239 /;
#X floatatom 472 258 10 0 0 0 - - -;
#X floatatom 399 126 5 0 0 0 - - -;
#X floatatom 472 176 5 0 0 0 - - -;
#X obj 365 176 bng 15 250 50 0 empty empty empty 17 7 0 10 -262144
-1 -1;
#X obj 398 258 s fTempo;
#X obj 329 107 r nTempo;
#X obj 399 157 r mTempo;
#X obj 101 107 key;
#X floatatom 52 126 5 0 0 0 - - -;
#X obj 101 256 bng 15 250 50 0 empty empty empty 17 7 0 10 -262144
-1 -1;
#X obj 141 151 bng 15 250 50 0 empty empty empty 17 7 0 10 -262144
-1 -1;
#X text 396 107 new tempo;
#X text 457 238 factor tempo;
#X obj 174 166 s resetMeter;
#X obj 141 190 s iniciar;
#X obj 101 276 s terminar;
#X text 75 47 >>> KEY CONTROL <<<;
#X text 344 48 >>> FACTOR TEMPO CALC <<<;
#X text 471 158 master tempo;
#X obj 141 126 select 96;
#X text 221 126 `;
#X obj 101 233 select 9;
#X text 175 233 tab;
#X connect 0 0 1 0;
#X connect 0 0 5 0;
#X connect 4 0 0 0;
#X connect 6 0 0 0;
#X connect 6 0 2 0;
#X connect 7 0 0 1;
#X connect 7 0 3 0;
#X connect 7 0 4 0;
#X connect 8 0 9 0;
#X connect 8 0 20 0;
#X connect 8 0 22 0;
#X connect 10 0 16 0;
#X connect 11 0 14 0;
#X connect 11 0 15 0;
#X connect 20 0 11 0;
#X connect 22 0 10 0;
#X restore 16 20 pd transEng;
#X f 12;
#X floatatom 148 12 5 10 300 0 - - -;
#X text 187 13 set BPM;
#X obj 266 114 on;
#X obj 1115 99 bng 15 250 50 0 empty empty empty 17 7 0 10 -262144
-1 -1;
#X obj 266 144 bng 50 250 50 0 empty empty empty 17 7 0 10 -262144
-1 -1;
#X obj 259 30 metroEngine-b, f 14;
#X obj 316 114 on;
#X obj 316 144 bng 50 250 50 0 empty empty empty 17 7 0 10 -262144
-1 -1;
#X obj 366 114 on;
#X obj 366 144 bng 50 250 50 0 empty empty empty 17 7 0 10 -262144
-1 -1;
#X obj 416 114 on;
#X obj 416 144 bng 50 250 50 0 empty empty 4 18 25 0 20 -262144 -1
-1;
#X obj 466 114 on;
#X obj 466 144 bng 50 250 50 0 empty empty empty 17 7 0 10 -262144
-1 -1;
#X obj 516 114 on;
#X obj 516 144 bng 50 250 50 0 empty empty empty 17 7 0 10 -262144
-1 -1;
#X obj 566 114 on;
#X obj 566 144 bng 50 250 50 0 empty empty empty 17 7 0 10 -262144
-1 -1;
#X obj 616 114 on;
#X obj 616 144 bng 50 250 50 0 empty empty 8 18 25 0 20 -262144 -1
-1;
#X obj 666 114 on;
#X obj 666 144 bng 50 250 50 0 empty empty empty 17 7 0 10 -262144
-1 -1;
#X obj 716 114 on;
#X obj 716 144 bng 50 250 50 0 empty empty empty 17 7 0 10 -262144
-1 -1;
#X obj 766 114 on;
#X obj 766 144 bng 50 250 50 0 empty empty empty 17 7 0 10 -262144
-1 -1;
#X obj 816 114 on;
#X obj 816 144 bng 50 250 50 0 empty empty 12 13 25 0 20 -262144 -1
-1;
#X obj 866 114 on;
#X obj 866 144 bng 50 250 50 0 empty empty empty 17 7 0 10 -262144
-1 -1;
#X obj 916 114 on;
#X obj 916 144 bng 50 250 50 0 empty empty empty 17 7 0 10 -262144
-1 -1;
#X obj 966 114 on;
#X obj 966 144 bng 50 250 50 0 empty empty empty 17 7 0 10 -262144
-1 -1;
#X obj 1016 114 on;
#X obj 1016 144 bng 50 250 50 0 empty empty 16 13 25 0 20 -262144 -1
-1;
#N canvas 663 93 485 595 about 0;
#X text 94 73 About: this is a metronome with a sequencer attached
to it. It is a work in progress already capable of having up to 16
beats per measure \, and subdivisions on each beat., f 43;
#X text 94 489 Master Metronome by Perkinson 2020 (perklapoint@gmail.com)
, f 43;
#X text 94 195 Transport Engine (subpatch): key controls for start
(` or 96) and stop (tab or 9)., f 43;
#X text 93 378 On: on/off switch.;
#X text 148 24 >>> Master Metronome <<<, f 25;
#X text 94 160 v 5-b4 uses 5 abstractions and 1 subpatch briefly described
next:, f 43;
#X text 94 230 Metro Engine (b): a simple metronome with the metro
object., f 43;
#X text 94 265 Step Meter (2-b2): takes a pulse and arranges it in
a meter that can have up to 16 beats per measure. The measure can be
shifted and shortened to achieve greater flexibility., f 43;
#X text 94 343 Beat Multiplets (b2): takes a beat and subdivides it
to make tuplets., f 43;
#X text 94 399 Midi Rec (2-b3): set midi channel for noteout and record
notein with a controller \, and within a specified range in start step
(sS) and end step (eS)., f 43;
#X restore 19 285 pd about;
#X obj 259 49 stepMeter2-b2;
#X obj 259 194 midiRec2-b4;
#X obj 266 84 bm-b3;
#X obj 316 84 bm-b3;
#X obj 366 84 bm-b3;
#X obj 416 84 bm-b3;
#X obj 466 84 bm-b3;
#X obj 516 84 bm-b3;
#X obj 566 84 bm-b3;
#X obj 616 84 bm-b3;
#X obj 666 84 bm-b3;
#X obj 716 84 bm-b3;
#X obj 766 84 bm-b3;
#X obj 816 84 bm-b3;
#X obj 866 84 bm-b3;
#X obj 916 84 bm-b3;
#X obj 966 84 bm-b3;
#X obj 1016 84 bm-b3;
#X floatatom 148 239 5 10 300 0 - - -;
#X text 187 240 set BPM;
#X obj 266 341 on;
#X obj 1115 326 bng 15 250 50 0 empty empty empty 17 7 0 10 -262144
-1 -1;
#X obj 266 371 bng 50 250 50 0 empty empty empty 17 7 0 10 -262144
-1 -1;
#X obj 259 257 metroEngine-b, f 14;
#X obj 316 341 on;
#X obj 316 371 bng 50 250 50 0 empty empty empty 17 7 0 10 -262144
-1 -1;
#X obj 366 341 on;
#X obj 366 371 bng 50 250 50 0 empty empty empty 17 7 0 10 -262144
-1 -1;
#X obj 416 341 on;
#X obj 416 371 bng 50 250 50 0 empty empty 4 18 25 0 20 -262144 -1
-1;
#X obj 466 341 on;
#X obj 466 371 bng 50 250 50 0 empty empty empty 17 7 0 10 -262144
-1 -1;
#X obj 516 341 on;
#X obj 516 371 bng 50 250 50 0 empty empty empty 17 7 0 10 -262144
-1 -1;
#X obj 566 341 on;
#X obj 566 371 bng 50 250 50 0 empty empty empty 17 7 0 10 -262144
-1 -1;
#X obj 616 341 on;
#X obj 616 371 bng 50 250 50 0 empty empty 8 18 25 0 20 -262144 -1
-1;
#X obj 666 341 on;
#X obj 666 371 bng 50 250 50 0 empty empty empty 17 7 0 10 -262144
-1 -1;
#X obj 716 341 on;
#X obj 716 371 bng 50 250 50 0 empty empty empty 17 7 0 10 -262144
-1 -1;
#X obj 766 341 on;
#X obj 766 371 bng 50 250 50 0 empty empty empty 17 7 0 10 -262144
-1 -1;
#X obj 816 341 on;
#X obj 816 371 bng 50 250 50 0 empty empty 12 13 25 0 20 -262144 -1
-1;
#X obj 866 341 on;
#X obj 866 371 bng 50 250 50 0 empty empty empty 17 7 0 10 -262144
-1 -1;
#X obj 916 341 on;
#X obj 916 371 bng 50 250 50 0 empty empty empty 17 7 0 10 -262144
-1 -1;
#X obj 966 341 on;
#X obj 966 371 bng 50 250 50 0 empty empty empty 17 7 0 10 -262144
-1 -1;
#X obj 1016 341 on;
#X obj 1016 371 bng 50 250 50 0 empty empty 16 13 25 0 20 -262144 -1
-1;
#X obj 259 276 stepMeter2-b2;
#X obj 259 421 midiRec2-b4;
#X obj 266 311 bm-b3;
#X obj 316 311 bm-b3;
#X obj 366 311 bm-b3;
#X obj 416 311 bm-b3;
#X obj 466 311 bm-b3;
#X obj 516 311 bm-b3;
#X obj 566 311 bm-b3;
#X obj 616 311 bm-b3;
#X obj 666 311 bm-b3;
#X obj 716 311 bm-b3;
#X obj 766 311 bm-b3;
#X obj 816 311 bm-b3;
#X obj 866 311 bm-b3;
#X obj 916 311 bm-b3;
#X obj 966 311 bm-b3;
#X obj 1016 311 bm-b3;
#X floatatom 147 466 5 10 300 0 - - -;
#X text 186 467 set BPM;
#X obj 265 568 on;
#X obj 1114 553 bng 15 250 50 0 empty empty empty 17 7 0 10 -262144
-1 -1;
#X obj 265 598 bng 50 250 50 0 empty empty empty 17 7 0 10 -262144
-1 -1;
#X obj 258 484 metroEngine-b, f 14;
#X obj 315 568 on;
#X obj 315 598 bng 50 250 50 0 empty empty empty 17 7 0 10 -262144
-1 -1;
#X obj 365 568 on;
#X obj 365 598 bng 50 250 50 0 empty empty empty 17 7 0 10 -262144
-1 -1;
#X obj 415 568 on;
#X obj 415 598 bng 50 250 50 0 empty empty 4 18 25 0 20 -262144 -1
-1;
#X obj 465 568 on;
#X obj 465 598 bng 50 250 50 0 empty empty empty 17 7 0 10 -262144
-1 -1;
#X obj 515 568 on;
#X obj 515 598 bng 50 250 50 0 empty empty empty 17 7 0 10 -262144
-1 -1;
#X obj 565 568 on;
#X obj 565 598 bng 50 250 50 0 empty empty empty 17 7 0 10 -262144
-1 -1;
#X obj 615 568 on;
#X obj 615 598 bng 50 250 50 0 empty empty 8 18 25 0 20 -262144 -1
-1;
#X obj 665 568 on;
#X obj 665 598 bng 50 250 50 0 empty empty empty 17 7 0 10 -262144
-1 -1;
#X obj 715 568 on;
#X obj 715 598 bng 50 250 50 0 empty empty empty 17 7 0 10 -262144
-1 -1;
#X obj 765 568 on;
#X obj 765 598 bng 50 250 50 0 empty empty empty 17 7 0 10 -262144
-1 -1;
#X obj 815 568 on;
#X obj 815 598 bng 50 250 50 0 empty empty 12 13 25 0 20 -262144 -1
-1;
#X obj 865 568 on;
#X obj 865 598 bng 50 250 50 0 empty empty empty 17 7 0 10 -262144
-1 -1;
#X obj 915 568 on;
#X obj 915 598 bng 50 250 50 0 empty empty empty 17 7 0 10 -262144
-1 -1;
#X obj 965 568 on;
#X obj 965 598 bng 50 250 50 0 empty empty empty 17 7 0 10 -262144
-1 -1;
#X obj 1015 568 on;
#X obj 1015 598 bng 50 250 50 0 empty empty 16 13 25 0 20 -262144 -1
-1;
#X obj 258 503 stepMeter2-b2;
#X obj 258 648 midiRec2-b4;
#X obj 265 538 bm-b3;
#X obj 315 538 bm-b3;
#X obj 365 538 bm-b3;
#X obj 415 538 bm-b3;
#X obj 465 538 bm-b3;
#X obj 515 538 bm-b3;
#X obj 565 538 bm-b3;
#X obj 615 538 bm-b3;
#X obj 665 538 bm-b3;
#X obj 715 538 bm-b3;
#X obj 765 538 bm-b3;
#X obj 815 538 bm-b3;
#X obj 865 538 bm-b3;
#X obj 915 538 bm-b3;
#X obj 965 538 bm-b3;
#X obj 1015 538 bm-b3;
#X connect 3 0 8 0;
#X connect 5 0 7 0;
#X connect 6 0 5 1;
#X connect 6 0 9 1;
#X connect 6 0 11 1;
#X connect 6 0 13 1;
#X connect 6 0 15 1;
#X connect 6 0 17 1;
#X connect 6 0 19 1;
#X connect 6 0 21 1;
#X connect 6 0 23 1;
#X connect 6 0 25 1;
#X connect 6 0 27 1;
#X connect 6 0 29 1;
#X connect 6 0 31 1;
#X connect 6 0 33 1;
#X connect 6 0 35 1;
#X connect 6 0 37 1;
#X connect 7 0 41 1;
#X connect 8 0 40 0;
#X connect 8 1 40 1;
#X connect 9 0 10 0;
#X connect 10 0 41 1;
#X connect 11 0 12 0;
#X connect 12 0 41 1;
#X connect 13 0 14 0;
#X connect 14 0 41 1;
#X connect 15 0 16 0;
#X connect 16 0 41 1;
#X connect 17 0 18 0;
#X connect 18 0 41 1;
#X connect 19 0 20 0;
#X connect 20 0 41 1;
#X connect 21 0 22 0;
#X connect 22 0 41 1;
#X connect 23 0 24 0;
#X connect 24 0 41 1;
#X connect 25 0 26 0;
#X connect 26 0 41 1;
#X connect 27 0 28 0;
#X connect 28 0 41 1;
#X connect 29 0 30 0;
#X connect 30 0 41 1;
#X connect 31 0 32 0;
#X connect 32 0 41 1;
#X connect 33 0 34 0;
#X connect 34 0 41 1;
#X connect 35 0 36 0;
#X connect 36 0 41 1;
#X connect 37 0 38 0;
#X connect 38 0 41 1;
#X connect 40 0 41 0;
#X connect 40 1 42 0;
#X connect 40 2 43 0;
#X connect 40 3 44 0;
#X connect 40 4 45 0;
#X connect 40 5 46 0;
#X connect 40 6 47 0;
#X connect 40 7 48 0;
#X connect 40 8 49 0;
#X connect 40 9 50 0;
#X connect 40 10 51 0;
#X connect 40 11 52 0;
#X connect 40 12 53 0;
#X connect 40 13 54 0;
#X connect 40 14 55 0;
#X connect 40 15 56 0;
#X connect 40 16 57 0;
#X connect 40 17 57 1;
#X connect 40 17 56 1;
#X connect 40 17 55 1;
#X connect 40 17 54 1;
#X connect 40 17 53 1;
#X connect 40 17 52 1;
#X connect 40 17 51 1;
#X connect 40 17 50 1;
#X connect 40 17 49 1;
#X connect 40 17 48 1;
#X connect 40 17 47 1;
#X connect 40 17 46 1;
#X connect 40 17 45 1;
#X connect 40 17 44 1;
#X connect 40 17 43 1;
#X connect 40 17 42 1;
#X connect 42 0 5 0;
#X connect 43 0 9 0;
#X connect 44 0 11 0;
#X connect 45 0 13 0;
#X connect 46 0 15 0;
#X connect 47 0 17 0;
#X connect 48 0 19 0;
#X connect 49 0 21 0;
#X connect 50 0 23 0;
#X connect 51 0 25 0;
#X connect 52 0 27 0;
#X connect 53 0 29 0;
#X connect 54 0 31 0;
#X connect 55 0 33 0;
#X connect 56 0 35 0;
#X connect 57 0 37 0;
#X connect 58 0 63 0;
#X connect 60 0 62 0;
#X connect 61 0 60 1;
#X connect 61 0 64 1;
#X connect 61 0 66 1;
#X connect 61 0 68 1;
#X connect 61 0 70 1;
#X connect 61 0 72 1;
#X connect 61 0 74 1;
#X connect 61 0 76 1;
#X connect 61 0 78 1;
#X connect 61 0 80 1;
#X connect 61 0 82 1;
#X connect 61 0 84 1;
#X connect 61 0 86 1;
#X connect 61 0 88 1;
#X connect 61 0 90 1;
#X connect 61 0 92 1;
#X connect 62 0 95 1;
#X connect 63 0 94 0;
#X connect 63 1 94 1;
#X connect 64 0 65 0;
#X connect 65 0 95 1;
#X connect 66 0 67 0;
#X connect 67 0 95 1;
#X connect 68 0 69 0;
#X connect 69 0 95 1;
#X connect 70 0 71 0;
#X connect 71 0 95 1;
#X connect 72 0 73 0;
#X connect 73 0 95 1;
#X connect 74 0 75 0;
#X connect 75 0 95 1;
#X connect 76 0 77 0;
#X connect 77 0 95 1;
#X connect 78 0 79 0;
#X connect 79 0 95 1;
#X connect 80 0 81 0;
#X connect 81 0 95 1;
#X connect 82 0 83 0;
#X connect 83 0 95 1;
#X connect 84 0 85 0;
#X connect 85 0 95 1;
#X connect 86 0 87 0;
#X connect 87 0 95 1;
#X connect 88 0 89 0;
#X connect 89 0 95 1;
#X connect 90 0 91 0;
#X connect 91 0 95 1;
#X connect 92 0 93 0;
#X connect 93 0 95 1;
#X connect 94 0 95 0;
#X connect 94 1 96 0;
#X connect 94 2 97 0;
#X connect 94 3 98 0;
#X connect 94 4 99 0;
#X connect 94 5 100 0;
#X connect 94 6 101 0;
#X connect 94 7 102 0;
#X connect 94 8 103 0;
#X connect 94 9 104 0;
#X connect 94 10 105 0;
#X connect 94 11 106 0;
#X connect 94 12 107 0;
#X connect 94 13 108 0;
#X connect 94 14 109 0;
#X connect 94 15 110 0;
#X connect 94 16 111 0;
#X connect 94 17 111 1;
#X connect 94 17 110 1;
#X connect 94 17 109 1;
#X connect 94 17 108 1;
#X connect 94 17 107 1;
#X connect 94 17 106 1;
#X connect 94 17 105 1;
#X connect 94 17 104 1;
#X connect 94 17 103 1;
#X connect 94 17 102 1;
#X connect 94 17 101 1;
#X connect 94 17 100 1;
#X connect 94 17 99 1;
#X connect 94 17 98 1;
#X connect 94 17 97 1;
#X connect 94 17 96 1;
#X connect 96 0 60 0;
#X connect 97 0 64 0;
#X connect 98 0 66 0;
#X connect 99 0 68 0;
#X connect 100 0 70 0;
#X connect 101 0 72 0;
#X connect 102 0 74 0;
#X connect 103 0 76 0;
#X connect 104 0 78 0;
#X connect 105 0 80 0;
#X connect 106 0 82 0;
#X connect 107 0 84 0;
#X connect 108 0 86 0;
#X connect 109 0 88 0;
#X connect 110 0 90 0;
#X connect 111 0 92 0;
#X connect 112 0 117 0;
#X connect 114 0 116 0;
#X connect 115 0 114 1;
#X connect 115 0 118 1;
#X connect 115 0 120 1;
#X connect 115 0 122 1;
#X connect 115 0 124 1;
#X connect 115 0 126 1;
#X connect 115 0 128 1;
#X connect 115 0 130 1;
#X connect 115 0 132 1;
#X connect 115 0 134 1;
#X connect 115 0 136 1;
#X connect 115 0 138 1;
#X connect 115 0 140 1;
#X connect 115 0 142 1;
#X connect 115 0 144 1;
#X connect 115 0 146 1;
#X connect 116 0 149 1;
#X connect 117 0 148 0;
#X connect 117 1 148 1;
#X connect 118 0 119 0;
#X connect 119 0 149 1;
#X connect 120 0 121 0;
#X connect 121 0 149 1;
#X connect 122 0 123 0;
#X connect 123 0 149 1;
#X connect 124 0 125 0;
#X connect 125 0 149 1;
#X connect 126 0 127 0;
#X connect 127 0 149 1;
#X connect 128 0 129 0;
#X connect 129 0 149 1;
#X connect 130 0 131 0;
#X connect 131 0 149 1;
#X connect 132 0 133 0;
#X connect 133 0 149 1;
#X connect 134 0 135 0;
#X connect 135 0 149 1;
#X connect 136 0 137 0;
#X connect 137 0 149 1;
#X connect 138 0 139 0;
#X connect 139 0 149 1;
#X connect 140 0 141 0;
#X connect 141 0 149 1;
#X connect 142 0 143 0;
#X connect 143 0 149 1;
#X connect 144 0 145 0;
#X connect 145 0 149 1;
#X connect 146 0 147 0;
#X connect 147 0 149 1;
#X connect 148 0 149 0;
#X connect 148 1 150 0;
#X connect 148 2 151 0;
#X connect 148 3 152 0;
#X connect 148 4 153 0;
#X connect 148 5 154 0;
#X connect 148 6 155 0;
#X connect 148 7 156 0;
#X connect 148 8 157 0;
#X connect 148 9 158 0;
#X connect 148 10 159 0;
#X connect 148 11 160 0;
#X connect 148 12 161 0;
#X connect 148 13 162 0;
#X connect 148 14 163 0;
#X connect 148 15 164 0;
#X connect 148 16 165 0;
#X connect 148 17 165 1;
#X connect 148 17 164 1;
#X connect 148 17 163 1;
#X connect 148 17 162 1;
#X connect 148 17 161 1;
#X connect 148 17 160 1;
#X connect 148 17 159 1;
#X connect 148 17 158 1;
#X connect 148 17 157 1;
#X connect 148 17 156 1;
#X connect 148 17 155 1;
#X connect 148 17 154 1;
#X connect 148 17 153 1;
#X connect 148 17 152 1;
#X connect 148 17 151 1;
#X connect 148 17 150 1;
#X connect 150 0 114 0;
#X connect 151 0 118 0;
#X connect 152 0 120 0;
#X connect 153 0 122 0;
#X connect 154 0 124 0;
#X connect 155 0 126 0;
#X connect 156 0 128 0;
#X connect 157 0 130 0;
#X connect 158 0 132 0;
#X connect 159 0 134 0;
#X connect 160 0 136 0;
#X connect 161 0 138 0;
#X connect 162 0 140 0;
#X connect 163 0 142 0;
#X connect 164 0 144 0;
#X connect 165 0 146 0;
