#N canvas 0 23 1275 721 12;
#X obj 16 58 bng 90 250 50 0 iniciar empty PLAY 25 45 0 18 -262144
-1 -1;
#X obj 120 58 bng 90 250 50 0 terminar empty STOP 25 45 0 18 -262144
-262144 -1;
#N canvas 617 276 594 421 transEng 0;
#X obj 329 239 /;
#X floatatom 472 258 10 0 0 0 - - -;
#X floatatom 399 126 5 0 0 0 - - -;
#X floatatom 472 176 5 0 0 0 - - -;
#X obj 365 176 bng 15 250 50 0 empty empty empty 17 7 0 10 -262144
-1 -1;
#X obj 398 258 s fTempo;
#X obj 329 107 r nTempo;
#X obj 399 157 r mTempo;
#X obj 101 107 key;
#X floatatom 52 126 5 0 0 0 - - -;
#X obj 101 256 bng 15 250 50 0 empty empty empty 17 7 0 10 -262144
-1 -1;
#X obj 141 151 bng 15 250 50 0 empty empty empty 17 7 0 10 -262144
-1 -1;
#X text 396 107 new tempo;
#X text 457 238 factor tempo;
#X obj 174 166 s resetMeter;
#X obj 141 190 s iniciar;
#X obj 101 276 s terminar;
#X text 75 47 >>> KEY CONTROL <<<;
#X text 344 48 >>> FACTOR TEMPO CALC <<<;
#X text 471 158 master tempo;
#X obj 141 126 select 96;
#X text 221 126 `;
#X obj 101 233 select 9;
#X text 175 233 tab;
#X connect 0 0 1 0;
#X connect 0 0 5 0;
#X connect 4 0 0 0;
#X connect 6 0 0 0;
#X connect 6 0 2 0;
#X connect 7 0 0 1;
#X connect 7 0 3 0;
#X connect 7 0 4 0;
#X connect 8 0 9 0;
#X connect 8 0 20 0;
#X connect 8 0 22 0;
#X connect 10 0 16 0;
#X connect 11 0 14 0;
#X connect 11 0 15 0;
#X connect 20 0 11 0;
#X connect 22 0 10 0;
#X restore 16 20 pd transEng;
#X f 12;
#X obj 362 90 bng 15 250 50 0 empty empty empty 17 7 0 10 -262144 -1
-1;
#X floatatom 362 20 5 0 0 0 - - -;
#X floatatom 464 64 5 0 0 0 - - -;
#X text 401 21 set BPM;
#X floatatom 391 89 3 0 0 0 - - -;
#X floatatom 420 89 3 0 0 0 - - -;
#X obj 362 164 on;
#X obj 1189 31 loadbang;
#X obj 1189 149 bng 15 250 50 0 empty empty empty 17 7 0 10 -262144
-1 -1;
#X obj 362 194 bng 50 250 50 0 empty empty empty 17 7 0 10 -262144
-1 -1;
#X obj 362 115 stepMeter2-b, f 13;
#X obj 362 45 metroEngine-b;
#X text 503 63 actual MS;
#X obj 412 164 on;
#X obj 412 194 bng 50 250 50 0 empty empty empty 17 7 0 10 -262144
-1 -1;
#X obj 462 164 on;
#X obj 462 194 bng 50 250 50 0 empty empty empty 17 7 0 10 -262144
-1 -1;
#X obj 512 164 on;
#X obj 512 194 bng 50 250 50 0 empty empty 4 18 25 0 20 -262144 -1
-1;
#X obj 562 164 on;
#X obj 562 194 bng 50 250 50 0 empty empty empty 17 7 0 10 -262144
-1 -1;
#X obj 612 164 on;
#X obj 612 194 bng 50 250 50 0 empty empty empty 17 7 0 10 -262144
-1 -1;
#X obj 662 164 on;
#X obj 662 194 bng 50 250 50 0 empty empty empty 17 7 0 10 -262144
-1 -1;
#X obj 712 164 on;
#X obj 712 194 bng 50 250 50 0 empty empty 8 18 25 0 20 -262144 -1
-1;
#X obj 762 164 on;
#X obj 762 194 bng 50 250 50 0 empty empty empty 17 7 0 10 -262144
-1 -1;
#X obj 812 164 on;
#X obj 812 194 bng 50 250 50 0 empty empty empty 17 7 0 10 -262144
-1 -1;
#X obj 862 164 on;
#X obj 862 194 bng 50 250 50 0 empty empty empty 17 7 0 10 -262144
-1 -1;
#X obj 912 164 on;
#X obj 912 194 bng 50 250 50 0 empty empty 12 13 25 0 20 -262144 -1
-1;
#X obj 962 164 on;
#X obj 962 194 bng 50 250 50 0 empty empty empty 17 7 0 10 -262144
-1 -1;
#X obj 1012 164 on;
#X obj 1012 194 bng 50 250 50 0 empty empty empty 17 7 0 10 -262144
-1 -1;
#X obj 1062 164 on;
#X obj 1062 194 bng 50 250 50 0 empty empty empty 17 7 0 10 -262144
-1 -1;
#X obj 1112 164 on;
#X obj 1112 194 bng 50 250 50 0 empty empty 16 13 25 0 20 -262144 -1
-1;
#X obj 362 134 bM-b2;
#X obj 412 134 bM-b2;
#X obj 462 134 bM-b2;
#X obj 512 134 bM-b2;
#X obj 562 134 bM-b2;
#X obj 612 134 bM-b2;
#X obj 662 134 bM-b2;
#X obj 712 134 bM-b2;
#X obj 762 134 bM-b2;
#X obj 812 134 bM-b2;
#X obj 862 134 bM-b2;
#X obj 912 134 bM-b2;
#X obj 962 134 bM-b2;
#X obj 1012 134 bM-b2;
#X obj 1062 134 bM-b2;
#X obj 1112 134 bM-b2;
#X obj 362 244 midiEngine;
#X obj 412 244 midiEngine;
#X obj 462 244 midiEngine;
#X obj 512 244 midiEngine;
#X obj 562 244 midiEngine;
#X obj 612 244 midiEngine;
#X obj 662 244 midiEngine;
#X obj 712 244 midiEngine;
#X obj 762 244 midiEngine;
#X obj 812 244 midiEngine;
#X obj 862 244 midiEngine;
#X obj 912 244 midiEngine;
#X obj 962 244 midiEngine;
#X obj 1012 244 midiEngine;
#X obj 1062 244 midiEngine;
#X obj 1112 244 midiEngine;
#X msg 1189 225 10;
#X msg 1189 115 1, f 2;
#X msg 1189 70 1, f 2;
#X text 14 230 About: this is a metronome with a sequencer attached
to it. It is a work in progress already capable of having up to 16
beats per measure \, and subdivisions on each beat., f 43;
#X text 14 603 Master Metronome by Perkinson 2020 (perklapoint@gmail.com)
, f 43;
#X text 14 317 v 5-b2 uses 5 abstractions and 1 subpatch briefly described
next:, f 43;
#X text 14 352 Transport Engine (subpatch): key controls for start
(` or 96) and stop (tab or 9)., f 43;
#X text 14 387 Metro Engine: a simple metronome with the metro object.
, f 43;
#X text 14 422 Step Meter: takes a pulse and arranges it in a meter
that can have up to 16 beats per measure. The measure can be shifted
and shortened to achieve greater flexibility., f 43;
#X text 14 485 Beat Multiplets (bM): takes a beat and subdivides it
to make tuplets., f 43;
#X text 14 541 Midi Engine: sets channel and midi note manually or
with external controller., f 43;
#X text 13 520 On: on/off switch.;
#X connect 3 0 13 0;
#X connect 4 0 14 0;
#X connect 7 0 13 1;
#X connect 8 0 13 2;
#X connect 9 0 12 0;
#X connect 10 0 11 0;
#X connect 10 0 79 0;
#X connect 10 0 78 0;
#X connect 10 0 80 0;
#X connect 11 0 9 1;
#X connect 11 0 16 1;
#X connect 11 0 18 1;
#X connect 11 0 20 1;
#X connect 11 0 22 1;
#X connect 11 0 24 1;
#X connect 11 0 26 1;
#X connect 11 0 28 1;
#X connect 11 0 30 1;
#X connect 11 0 32 1;
#X connect 11 0 34 1;
#X connect 11 0 36 1;
#X connect 11 0 38 1;
#X connect 11 0 40 1;
#X connect 11 0 42 1;
#X connect 11 0 44 1;
#X connect 12 0 62 0;
#X connect 13 0 46 0;
#X connect 13 1 47 0;
#X connect 13 2 48 0;
#X connect 13 3 49 0;
#X connect 13 4 50 0;
#X connect 13 5 51 0;
#X connect 13 6 52 0;
#X connect 13 7 53 0;
#X connect 13 8 54 0;
#X connect 13 9 55 0;
#X connect 13 10 56 0;
#X connect 13 11 57 0;
#X connect 13 12 58 0;
#X connect 13 13 59 0;
#X connect 13 14 60 0;
#X connect 13 15 61 0;
#X connect 13 16 46 1;
#X connect 13 16 61 1;
#X connect 13 16 49 1;
#X connect 13 16 47 1;
#X connect 13 16 48 1;
#X connect 13 16 50 1;
#X connect 13 16 51 1;
#X connect 13 16 52 1;
#X connect 13 16 53 1;
#X connect 13 16 54 1;
#X connect 13 16 55 1;
#X connect 13 16 56 1;
#X connect 13 16 57 1;
#X connect 13 16 58 1;
#X connect 13 16 59 1;
#X connect 13 16 60 1;
#X connect 14 0 3 0;
#X connect 14 1 5 0;
#X connect 14 1 13 3;
#X connect 16 0 17 0;
#X connect 17 0 63 0;
#X connect 18 0 19 0;
#X connect 19 0 64 0;
#X connect 20 0 21 0;
#X connect 21 0 65 0;
#X connect 22 0 23 0;
#X connect 23 0 66 0;
#X connect 24 0 25 0;
#X connect 25 0 67 0;
#X connect 26 0 27 0;
#X connect 27 0 68 0;
#X connect 28 0 29 0;
#X connect 29 0 69 0;
#X connect 30 0 31 0;
#X connect 31 0 70 0;
#X connect 32 0 33 0;
#X connect 33 0 71 0;
#X connect 34 0 35 0;
#X connect 35 0 72 0;
#X connect 36 0 37 0;
#X connect 37 0 73 0;
#X connect 38 0 39 0;
#X connect 39 0 74 0;
#X connect 40 0 41 0;
#X connect 41 0 75 0;
#X connect 42 0 43 0;
#X connect 43 0 76 0;
#X connect 44 0 45 0;
#X connect 45 0 77 0;
#X connect 46 0 9 0;
#X connect 47 0 16 0;
#X connect 48 0 18 0;
#X connect 49 0 20 0;
#X connect 50 0 22 0;
#X connect 51 0 24 0;
#X connect 52 0 26 0;
#X connect 53 0 28 0;
#X connect 54 0 30 0;
#X connect 55 0 32 0;
#X connect 56 0 34 0;
#X connect 57 0 36 0;
#X connect 58 0 38 0;
#X connect 59 0 40 0;
#X connect 60 0 42 0;
#X connect 61 0 44 0;
#X connect 78 0 62 1;
#X connect 78 0 77 1;
#X connect 78 0 76 1;
#X connect 78 0 74 1;
#X connect 78 0 75 1;
#X connect 78 0 73 1;
#X connect 78 0 72 1;
#X connect 78 0 71 1;
#X connect 78 0 70 1;
#X connect 78 0 69 1;
#X connect 78 0 68 1;
#X connect 78 0 67 1;
#X connect 78 0 66 1;
#X connect 78 0 65 1;
#X connect 78 0 64 1;
#X connect 78 0 63 1;
#X connect 79 0 46 2;
#X connect 79 0 61 2;
#X connect 79 0 49 2;
#X connect 79 0 47 2;
#X connect 79 0 48 2;
#X connect 79 0 50 2;
#X connect 79 0 51 2;
#X connect 79 0 52 2;
#X connect 79 0 53 2;
#X connect 79 0 54 2;
#X connect 79 0 55 2;
#X connect 79 0 56 2;
#X connect 79 0 57 2;
#X connect 79 0 58 2;
#X connect 79 0 59 2;
#X connect 79 0 60 2;
#X connect 80 0 8 0;
#X connect 80 0 7 0;
