#N canvas 698 180 450 385 12;
#X obj 91 303 noteout 10, f 20;
#X obj 91 125 inlet;
#X text 139 125 bang;
#X text 151 36 >>> MIDI ENGINE <<<;
#X obj 203 82 notein;
#X floatatom 228 220 2 0 0 0 - - -;
#X obj 228 125 inlet;
#X text 272 125 channel;
#X text 252 82 record note;
#X floatatom 203 220 3 0 0 0 - - -;
#X obj 91 238 *;
#X msg 91 201 1;
#X obj 91 269 makenote 60 600;
#X text 202 201 n#;
#X text 226 201 c#;
#X msg 130 201 60;
#X obj 130 176 loadbang;
#X connect 1 0 11 0;
#X connect 4 0 9 0;
#X connect 5 0 0 2;
#X connect 6 0 5 0;
#X connect 9 0 10 1;
#X connect 10 0 12 0;
#X connect 11 0 10 0;
#X connect 12 0 0 0;
#X connect 12 1 0 1;
#X connect 15 0 9 0;
#X connect 16 0 15 0;
#X coords 0 -1 1 1 50 42 2 200 200;
