#N canvas 639 280 370 355 12;
#X obj 58 201 route 0 1;
#X obj 58 173 list prepend 0;
#X obj 58 95 inlet;
#X obj 231 95 inlet;
#X obj 88 239 outlet;
#X text 95 33 >>> ON/OFF TOGGLE <<<;
#X text 26 312 After: weightless @ pdpatchrepo.info;
#X obj 231 158 tgl 15 0 empty empty empty 17 7 0 10 -262144 -1 -1 1
1;
#X text 273 95 toggle;
#X text 102 95 signal;
#X text 206 155 on;
#X connect 0 1 4 0;
#X connect 1 0 0 0;
#X connect 2 0 1 0;
#X connect 3 0 7 0;
#X connect 7 0 1 1;
#X coords 0 -1 1 1 50 30 2 200 150;
