#N canvas 560 51 589 691 12;
#X obj 118 127 inlet;
#X text 226 38 >>> STEP METER <<<;
#X text 161 127 metronome pulse, f 16;
#X obj 118 414 MarkEx/counter;
#X floatatom 259 310 3 1 16 0 - - -;
#X floatatom 307 310 3 1 16 0 - - -;
#X msg 17 374 clear;
#X obj 17 346 r resetMeter;
#X obj 118 489 outlet;
#X obj 137 512 outlet;
#X obj 156 535 outlet;
#X obj 175 558 outlet;
#X obj 194 489 outlet;
#X obj 213 512 outlet;
#X obj 232 535 outlet;
#X obj 251 558 outlet;
#X obj 270 489 outlet;
#X obj 289 512 outlet;
#X obj 308 535 outlet;
#X obj 327 558 outlet;
#X obj 346 489 outlet;
#X obj 365 512 outlet;
#X obj 384 535 outlet;
#X obj 403 558 outlet;
#X obj 441 261 outlet;
#X obj 441 127 inlet;
#X text 487 128 actual MS;
#X obj 31 534 outlet;
#X obj 259 345 - 1;
#X obj 307 345 - 1;
#X obj 118 450 sel 0 1 2 3 4 5 6 7 8 9 10 11 12 13 14 15, f 44;
#X obj 187 346 + 1;
#X obj 187 311 hradio 15 1 0 3 empty empty empty 0 -8 0 10 -262144
-1 -1 2;
#X text 238 309 sS;
#X text 286 309 eS;
#X text 159 309 dir;
#X obj 259 184 loadbang;
#X msg 187 261 0;
#X msg 259 261 1;
#X msg 307 261 16;
#X connect 0 0 3 0;
#X connect 3 0 27 0;
#X connect 3 0 30 0;
#X connect 4 0 28 0;
#X connect 5 0 29 0;
#X connect 6 0 3 0;
#X connect 7 0 6 0;
#X connect 25 0 24 0;
#X connect 28 0 3 2;
#X connect 29 0 3 3;
#X connect 30 0 8 0;
#X connect 30 1 9 0;
#X connect 30 2 10 0;
#X connect 30 3 11 0;
#X connect 30 4 12 0;
#X connect 30 5 13 0;
#X connect 30 6 14 0;
#X connect 30 7 15 0;
#X connect 30 8 16 0;
#X connect 30 9 17 0;
#X connect 30 10 18 0;
#X connect 30 11 19 0;
#X connect 30 12 20 0;
#X connect 30 13 21 0;
#X connect 30 14 22 0;
#X connect 30 15 23 0;
#X connect 31 0 3 1;
#X connect 32 0 31 0;
#X connect 36 0 37 0;
#X connect 36 0 38 0;
#X connect 36 0 39 0;
#X connect 37 0 32 0;
#X connect 38 0 4 0;
#X connect 39 0 5 0;
#X coords 0 -1 1 1 195 35 2 150 300;
