#N canvas 169 23 1043 691 12;
#X obj 118 101 inlet;
#X text 495 39 >>> STEP METER <<<;
#X text 162 101 metronome pulse;
#X obj 118 414 MarkEx/counter;
#X floatatom 213 386 3 0 0 0 - - -;
#X floatatom 181 264 3 0 0 0 - - -;
#X obj 213 337 +;
#X floatatom 433 231 3 0 0 0 - - -;
#X obj 213 361 - 1;
#X text 224 155 begining step;
#X text 243 386 ending step;
#X obj 181 155 inlet;
#X obj 433 156 inlet;
#X obj 118 450 sel 1 2 3 4 5 6 7 8 9 10 11 12 13 14 15 16, f 44;
#X floatatom 29 454 5 0 0 0 - - -;
#X msg 17 374 clear;
#X obj 17 346 r resetMeter;
#X obj 118 489 outlet;
#X obj 137 512 outlet;
#X obj 156 535 outlet;
#X obj 175 558 outlet;
#X obj 194 489 outlet;
#X obj 213 512 outlet;
#X obj 232 535 outlet;
#X obj 251 558 outlet;
#X obj 270 489 outlet;
#X obj 289 512 outlet;
#X obj 308 535 outlet;
#X obj 327 558 outlet;
#X obj 346 489 outlet;
#X obj 365 512 outlet;
#X obj 384 535 outlet;
#X obj 403 558 outlet;
#X text 477 156 steps;
#X obj 573 231 outlet;
#X obj 573 153 inlet;
#X text 619 154 actual MS;
#X obj 292 249 bng 15 250 50 0 empty empty empty 17 7 0 10 -262144
-1 -1;
#X connect 0 0 3 0;
#X connect 3 0 13 0;
#X connect 3 0 14 0;
#X connect 4 0 3 3;
#X connect 5 0 6 0;
#X connect 5 0 3 2;
#X connect 6 0 8 0;
#X connect 7 0 6 1;
#X connect 7 0 37 0;
#X connect 8 0 4 0;
#X connect 11 0 5 0;
#X connect 12 0 7 0;
#X connect 13 0 17 0;
#X connect 13 1 18 0;
#X connect 13 2 19 0;
#X connect 13 3 20 0;
#X connect 13 4 21 0;
#X connect 13 5 22 0;
#X connect 13 6 23 0;
#X connect 13 7 24 0;
#X connect 13 8 25 0;
#X connect 13 9 26 0;
#X connect 13 10 27 0;
#X connect 13 11 28 0;
#X connect 13 12 29 0;
#X connect 13 13 30 0;
#X connect 13 14 31 0;
#X connect 13 15 32 0;
#X connect 15 0 3 0;
#X connect 16 0 15 0;
#X connect 35 0 34 0;
#X connect 37 0 5 0;
